<?xml version="1.0" encoding="utf-8"?>
<!-- Generator: Adobe Illustrator 18.1.0, SVG Export Plug-In . SVG Version: 6.00 Build 0)  -->
<svg version="1.1" id="Layer_1" xmlns="http://www.w3.org/2000/svg" xmlns:xlink="http://www.w3.org/1999/xlink" x="0px" y="0px"
	 viewBox="0 0 800 400" enable-background="new 0 0 800 400" xml:space="preserve">
<rect display="none" opacity="0.8" fill="#95D2BC" stroke="#000000" stroke-miterlimit="10" width="800" height="400"/>
<g>
	<path fill="#010101" d="M419.5,164.6c-0.2-0.1-0.5-0.4-1.1-0.4h-36.1c-0.6,0-1,0.2-1.1,0.4c-0.2,0.3-0.4,0.7-0.3,1
		c0,0.1,0.4,5.3,0.5,8.3c0,0.3,0,0.6,0.1,0.9v0.1c0.1,1-0.1,2.2-0.3,3.5c-0.2,1.5-0.4,3-0.4,4.7c0.1,1.3,0.4,2.5,0.8,3.7
		c0.4,1.2,0.7,2.4,0.8,3.6c1.1,17.6,2.3,35.6,2.4,36.2c0.1,1.3,1,2.5,2.2,3c1.2,0.4,4.7,1.3,13.3,1.3s12.1-0.9,13.3-1.3
		c1.3-0.4,2.1-1.6,2.2-2.9c0-0.5,0.7-10.9,1.5-22.9l0.9-13.3c0.1-1.2,0.4-2.4,0.8-3.6c0.4-1.2,0.7-2.4,0.8-3.7
		c0.1-1.6-0.1-3.2-0.3-4.7c-0.1-1.1-0.3-2.1-0.3-3.1v-0.4c0.1-2.7,0.6-9,0.6-9.2C419.8,165.2,419.7,164.9,419.5,164.6 M401,173.9
		h-17.8c-0.1-2.7-0.4-6.7-0.5-7.9H418c-0.1,1.3-0.4,5.2-0.5,7.9H401 M409.6,228.4c-2,0.3-5,0.5-9.3,0.5c-8.6,0-11.9-0.9-12.7-1.2
		c-0.4-0.2-1-0.7-1-1.4c-0.1-0.7-1.3-19-2.4-36.8c-0.1-1.4-0.5-2.8-0.9-4.1c-0.4-1.2-0.7-2.3-0.7-3.4c-0.1-1.4,0.1-2.9,0.3-4.3
		c0.1-1.1,0.3-2,0.3-3h34.1c0,1,0.1,2,0.3,3c0.3,1.4,0.5,2.9,0.4,4.4c-0.1,1.1-0.4,2.2-0.7,3.3c-0.4,1.3-0.8,2.6-0.9,4.1l-0.9,13.6
		c-0.8,12.2-1.5,22.7-1.5,23.3c-0.1,0.7-0.5,1.2-1,1.4C412.6,227.9,411.6,228.2,409.6,228.4 M400.3,228.9c-8.6,0-11.9-0.9-12.7-1.2"
		/>
</g>
<path display="none" fill="#010101" d="M409.6,228.4c-2,0.3-5,0.5-9.3,0.5c-8.6,0-11.9-0.9-12.7-1.2c-0.4-0.2-1-0.7-1-1.4
	c-0.1-0.7-1.3-19-2.4-36.8c-0.1-1.4-0.5-2.8-0.9-4.1c-0.4-1.2-0.7-2.3-0.7-3.4c-0.1-1.4,0.1-2.9,0.3-4.3c0.1-1.1,0.3-2,0.3-3h34.1
	c0,1,0.1,2,0.3,3c0.3,1.4,0.5,2.9,0.4,4.4c-0.1,1.1-0.4,2.2-0.7,3.3c-0.4,1.3-0.8,2.6-0.9,4.1l-0.9,13.6
	c-0.8,12.2-1.5,22.7-1.5,23.3c-0.1,0.7-0.5,1.2-1,1.4C412.6,227.9,411.6,228.2,409.6,228.4"/>
</svg>
